<svg xmlns="http://www.w3.org/2000/svg" class="u-svg-content" viewBox="0 0 511.99988 511" fill="orange" id="svg-7242"><path d="m332 151.5h-152v29h-15v30h15v31h-15v30h15v31h-15v30h15v29h152v-29h15v-30h-15v-31h15v-30h-15v-31h15v-30h-15zm-30 120h-92v-30h92zm0 60h-92v-30h92zm-92-120v-30h92v30zm0 0"></path><path d="m503.488281 313.90625c-5.007812-19.0625-12.109375-38.339844-21.078125-57.523438 30.972656-66.332031 38.589844-131.671874 17.742188-180.511718 7.3125-8.003906 11.777344-18.644532 11.777344-30.3125 0-24.808594-20.179688-44.988282-44.988282-44.988282-11.667968 0-22.3125 4.464844-30.316406 11.777344-48.835938-20.847656-114.175781-13.230468-180.507812 17.742188-19.183594-8.96875-38.464844-16.070313-57.523438-21.082032-67.605469-17.761718-124.863281-7.515624-161.230469 28.851563-36.371093 36.371094-46.617187 93.628906-28.851562 161.230469 5.007812 19.066406 12.109375 38.34375 21.078125 57.527344-30.972656 66.332031-38.589844 131.667968-17.742188 180.507812-7.3125 8.003906-11.7773435 18.648438-11.7773435 30.316406 0 24.804688 20.1796875 44.988282 44.9882815 44.988282 11.671875 0 22.316406-4.46875 30.320312-11.785157 18.515625 7.90625 39.394532 11.730469 61.8125 11.730469 36.707032 0 77.507813-10.234375 118.691406-29.464844 19.183594 8.96875 38.464844 16.070313 57.523438 21.078125 21.671875 5.695313 42.277344 8.511719 61.476562 8.511719 40.6875 0 75.046876-12.652344 99.753907-37.363281 36.371093-36.367188 46.617187-93.628907 28.851562-161.230469zm-36.546875-283.34375c8.269532 0 14.996094 6.726562 14.996094 14.996094 0 8.265625-6.726562 14.992187-14.996094 14.992187-8.269531 0-14.996094-6.726562-14.996094-14.992187 0-8.269532 6.726563-14.996094 14.996094-14.996094zm-163.667968 12.769531c46.015624-15.421875 87.746093-16.859375 119.171874-4.382812-.320312 2.160156-.492187 4.363281-.492187 6.609375 0 24.804687 20.183594 44.988281 44.988281 44.988281 2.246094 0 4.449219-.171875 6.609375-.488281 12.476563 31.421875 11.035157 73.148437-4.382812 119.171875-1.453125 4.34375-3.039063 8.699219-4.726563 13.066406-20.085937-34.164063-45.921875-67.398437-76.378906-97.859375-30.457031-30.457031-63.695312-56.292969-97.855469-76.378906 4.363281-1.6875 8.722657-3.273438 13.066407-4.726563zm145.765624 213.078125c-19.976562 38.707032-48.167968 76.925782-82.183593 110.945313-34.019531 34.015625-72.242188 62.207031-110.945313 82.183593-38.488281-19.835937-76.417968-47.835937-110.765625-82.183593-34.347656-34.351563-62.347656-72.277344-82.183593-110.769531 19.976562-38.703126 48.164062-76.921876 82.183593-110.941407 34.019531-34.015625 72.238281-62.207031 110.945313-82.183593 38.488281 19.835937 76.417968 47.835937 110.765625 82.183593 34.347656 34.347657 62.347656 72.273438 82.183593 110.765625zm-411.523437-64.941406c-14.941406-56.863281-7.464844-103.882812 21.054687-132.398438 18.914063-18.917968 45.964844-28.574218 78.636719-28.574218 16.582031 0 34.617188 2.492187 53.761719 7.519531 10.265625 2.699219 20.609375 6.078125 30.980469 10.070313-33.792969 19.824218-67.152344 45.492187-98.011719 76.351562s-56.527344 64.21875-76.351562 98.011719c-3.992188-10.371094-7.371094-20.714844-10.070313-30.980469zm7.542969 290.96875c-8.269532 0-14.996094-6.726562-14.996094-14.996094 0-8.269531 6.726562-14.996094 14.996094-14.996094 8.269531 0 14.996094 6.726563 14.996094 14.996094 0 8.269532-6.730469 14.996094-14.996094 14.996094zm163.667968-12.769531c-46.019531 15.417969-87.746093 16.859375-119.171874 4.382812.320312-2.160156.492187-4.363281.492187-6.609375 0-24.804687-20.183594-44.988281-44.988281-44.988281-2.246094 0-4.453125.171875-6.609375.492187-12.476563-31.425781-11.039063-73.152343 4.378906-119.171874 1.457031-4.347657 3.042969-8.703126 4.730469-13.070313 20.085937 34.164063 45.921875 67.398437 76.378906 97.859375 30.457031 30.457031 63.691406 56.292969 97.855469 76.378906-4.363281 1.6875-8.722657 3.273438-13.066407 4.726563zm244.703126-15.738281c-28.515626 28.515624-75.535157 35.996093-132.398438 21.054687-10.261719-2.699219-20.605469-6.074219-30.96875-10.066406 33.789062-19.824219 67.144531-45.5 98-76.355469 30.859375-30.859375 56.527344-64.21875 76.351562-98.011719 3.992188 10.367188 7.371094 20.714844 10.070313 30.976563 14.941406 56.867187 7.464844 103.886718-21.054687 132.402344zm0 0"></path></svg>